<?xml version="1.0" encoding="utf-8"?>
<!-- Generator: Adobe Illustrator 24.0.0, SVG Export Plug-In . SVG Version: 6.00 Build 0)  -->
<svg version="1.1" id="Layer_1" xmlns="http://www.w3.org/2000/svg" xmlns:xlink="http://www.w3.org/1999/xlink" x="0px" y="0px"
	 viewBox="0 0 1038.89 190.89" style="enable-background:new 0 0 1038.89 190.89;" xml:space="preserve">
<style type="text/css">
	.st0{fill:#1B1946;}
	.st1{fill:#FFFFFF;}
	.st2{fill:#02EEB3;}
	.st3{fill:#02EDB3;}
</style>
<g>
	<path class="st0" d="M300.13,0c-9.01,51.03-18.02,102.06-27.03,153.1c-1.82,10.3-3.69,20.6-5.46,30.91
		c-0.38,2.22-1.34,4.44-0.5,6.76c-87.31,0-174.62-0.04-261.93,0.12c-4.25,0.01-5.86-0.92-4.98-5.11c1.94-1.72,1.56-4.2,1.94-6.36
		c8.91-50.17,17.81-100.34,26.55-150.54c1.67-9.6,4.16-19.08,4.5-28.89c23.99,0,47.98,0,71.98,0c-0.04,0.99,0.03,2-0.14,2.97
		c-5.14,29.08-10.22,58.18-15.57,87.22c-0.8,4.32,0.12,5.38,4.45,5.3c13.3-0.25,26.62-0.38,39.92,0.05
		c5.12,0.16,6.61-1.58,7.38-6.34c3.27-20.14,7.09-40.19,10.45-60.32c1.6-9.61,4.17-19.07,4.5-28.88C204.17,0,252.15,0,300.13,0z
		 M224.63,23.94c-14.65,0-29.3,0.06-43.95-0.05c-2.88-0.02-4.51,0.36-4.85,3.83c-0.5,5.11-1.52,10.19-2.72,15.19
		c-0.93,3.87-0.08,5.03,4.11,4.99c20.48-0.22,40.96,0.05,61.43-0.21c4.58-0.06,5.17,1.48,4.45,5.4
		c-3.78,20.75-7.42,41.52-11.02,62.29c-0.48,2.76-1.55,3.89-4.54,3.86c-13.32-0.15-26.64-0.17-39.95,0
		c-3.38,0.04-3.97-1.27-3.4-4.16c1.03-5.21,1.89-10.46,2.9-15.68c0.51-2.64-0.02-4.01-3.16-3.9c-5.49,0.2-10.99,0.16-16.48,0.01
		c-2.67-0.07-3.81,0.86-4.26,3.55c-2.19,13.1-4.48,26.19-6.95,39.24c-0.73,3.84,0.36,4.77,4.2,4.75
		c28.63-0.15,57.27-0.15,85.91,0.01c3.52,0.02,4.84-0.94,5.45-4.43c6.37-36.82,12.86-73.61,19.44-110.39
		c0.61-3.38,0.17-4.48-3.64-4.42C253.27,24.09,238.95,23.94,224.63,23.94z M80.37,142.98c14.49,0,28.97-0.07,43.46,0.06
		c2.97,0.03,4.49-0.59,4.87-3.87c0.61-5.27,1.43-10.56,2.74-15.69c0.99-3.88-0.32-4.39-3.77-4.37c-20.31,0.13-40.63,0.07-60.94,0.06
		c-6.29,0-6.22,0-5.16-5.95c5.1-28.61,10.14-57.23,15.29-85.84c0.47-2.61,0.04-3.59-2.81-3.5c-5.66,0.18-11.32,0.17-16.98,0
		c-2.67-0.08-3.66,0.73-4.11,3.49c-1.9,11.8-4.12,23.56-6.21,35.33c-4.47,25.18-8.9,50.37-13.46,75.54
		c-0.67,3.68,0.13,4.9,4.12,4.83C51.73,142.84,66.05,142.98,80.37,142.98z"/>
	<path class="st1" d="M1038.89,44.95c-2.99,5.31-2.84,11.36-3.89,17.1c-4.27,23.36-8.31,46.77-12.33,70.17
		c-0.51,2.95-1.64,4-4.8,3.95c-9.49-0.14-9.59,0-11.34,9.45c-0.55,2.95-1.3,4.38-4.85,4.32c-15.65-0.25-31.3-0.21-46.95-0.03
		c-3.38,0.04-4.2-0.76-3.51-4.1c1.95-9.48,1.82-9.67-7.94-9.64c-3.25,0.01-3.92-0.85-3.36-3.92c5.38-29.91,10.69-59.84,15.88-89.78
		c0.4-2.28,1.37-2.58,3.26-2.56c7.33,0.06,14.65,0.12,21.98-0.03c2.77-0.06,2.7,0.93,2.28,3.22c-4.43,24.51-8.64,49.06-13.14,73.57
		c-0.82,4.47-0.12,6.24,4.85,5.8c5.12-0.46,10.35-0.49,15.47,0.01c5.03,0.49,6.66-1.38,7.47-6.22c4.03-24.25,8.53-48.41,12.64-72.64
		c0.5-2.95,1.38-3.81,4.31-3.74c7.99,0.21,15.98,0.09,23.97,0.11C1038.89,41.62,1038.89,43.28,1038.89,44.95z"/>
	<path class="st1" d="M662.23,149.82c4.49-25.42,8.9-50.43,13.31-75.43c0.17-0.98,0.21-2,0.52-2.94c1.15-3.56-0.55-4.09-3.68-4.08
		c-9.04,0.03-9.15-0.11-10.72,8.63c-4.22,23.38-8.44,46.77-12.41,70.19c-0.51,3.04-1.49,3.78-4.36,3.7
		c-6.83-0.19-13.66-0.12-20.49-0.03c-2.32,0.03-3.53,0.02-2.95-3.14c5.38-29.76,10.57-59.55,15.74-89.35
		c0.48-2.76,1.49-3.77,4.5-3.76c9.73,0.06,9.72-0.1,11.7-9.68c0.45-2.19,0.47-4.16,4.02-4.13c25.66,0.22,51.31,0.12,76.97,0.13
		c0.65,0,1.3,0.14,2.14,0.23c-0.1,0.75-0.19,1.36-0.27,1.98c-0.49,3.6-2.53,8.16-1.06,10.55c1.68,2.72,6.71,0.82,10.26,0.95
		c2.61,0.09,2.41,1.15,2.06,3.12c-4.39,24.54-8.7,49.09-13.02,73.63c-0.92,5.24-1.86,10.47-2.67,15.73
		c-0.4,2.62-1.22,3.96-4.38,3.81c-6.65-0.33-13.34-0.37-19.98,0c-3.95,0.23-3.81-1.58-3.31-4.32c2.83-15.7,5.62-31.4,8.41-47.11
		c1.65-9.33,3.16-18.68,4.98-27.97c0.53-2.67-0.29-3.02-2.64-3.14c-10.3-0.5-10.34-0.57-12.1,9.34
		c-4.01,22.58-8.06,45.15-11.89,67.76c-0.68,4.04-1.98,5.76-6.47,5.47C677.15,149.48,669.82,149.82,662.23,149.82z"/>
	<path class="st1" d="M845.84,40.11c-1.41,8.21-2.87,16.18-4.12,24.19c-0.44,2.82-1.97,3.2-4.46,3.18
		c-15.49-0.1-30.98,0.1-46.46-0.16c-3.82-0.06-5.13,1.21-5.7,4.74c-1.44,8.96-1.56,8.94,7.72,8.94c5.16,0,10.33,0.09,15.49-0.04
		c2.28-0.06,2.88,0.67,2.46,2.88c-1.39,7.34-2.7,14.7-3.89,22.08c-0.37,2.33-1.5,2.91-3.7,2.87c-6.99-0.12-13.99,0.1-20.98-0.11
		c-2.78-0.08-3.7,0.94-4.17,3.53c-1.82,10.13-1.89,10.11,8.53,10.11c13.32,0,26.65,0.19,39.96-0.11c4.43-0.1,4.89,1.33,4.03,5.14
		c-1.43,6.31-2.59,12.7-3.42,19.12c-0.37,2.89-1.53,3.4-4.11,3.39c-20.65-0.09-41.3-0.09-61.95,0.01c-2.62,0.01-3.55-0.56-2.97-3.29
		c0.71-3.36,2.98-7.64,1.08-9.9c-1.42-1.69-6.27-0.77-9.56-0.56c-4.51,0.3-2.8-2.72-2.49-4.57c3-17.52,6.14-35.01,9.23-52.51
		c1.24-7.03,2.62-14.05,3.63-21.11c0.46-3.21,1.6-4.4,5.02-4.34c9.33,0.17,9.43,0.01,11.21-9.6c0.56-3.04,1.58-4.24,5-4.2
		c20.15,0.21,40.3,0.1,60.45,0.11C843.01,39.92,844.32,40.04,845.84,40.11z"/>
	<path class="st1" d="M839.92,149.82c3.55-20.16,7.03-39.92,10.52-59.68c1.84-10.47,3.87-20.92,5.44-31.43
		c0.57-3.81,1.78-5.27,5.86-5.12c8.78,0.32,8.95,0.11,10.31-8.83c0.57-3.74,1.82-5.07,5.91-4.98c14.99,0.32,29.98,0.13,44.97,0.13
		c1.64,0,3.28,0,5.19,0c-0.62,3.56-0.92,6.73-1.78,9.74c-1.01,3.55,0.31,4.14,3.56,4.12c9.5-0.07,9.57,0.08,7.89,9.58
		c-4.88,27.65-9.83,55.29-14.73,82.94c-0.31,1.77-0.02,3.63-2.87,3.58c-8.31-0.14-16.62-0.05-25.28-0.05
		c3.55-20.13,7.03-39.89,10.52-59.64c1.1-6.22,2.11-12.45,3.39-18.63c0.69-3.35-0.31-4.32-3.7-4.19
		c-6.32,0.25-12.67,0.33-18.98-0.03c-3.57-0.2-4.48,1.37-4.99,4.37c-2.99,17.52-6.1,35.03-9.18,52.54
		c-1.32,7.53-2.72,15.04-3.95,22.58c-0.3,1.83-0.53,3.07-2.87,3.04C856.86,149.76,848.55,149.82,839.92,149.82z"/>
	<path class="st1" d="M463.76,108.7c-0.31,2.18-0.51,3.82-0.78,5.45c-1.34,8.19-1.35,8.19,7.14,8.19c4.66,0,9.35-0.27,13.98,0.09
		c3.74,0.29,5.12-1.01,5.74-4.67c3.96-23.42,8.18-46.8,12.23-70.21c1.32-7.62,1.22-7.63,8.97-7.63c6.48,0,12.96,0,19.95,0
		c-2.47,14.15-4.87,27.97-7.3,41.78c-2.88,16.36-5.85,32.71-8.62,49.08c-0.62,3.68-1.45,5.73-6.08,5.45
		c-8.55-0.52-8.74-0.17-10.06,8.47c-0.59,3.85-1.75,5.38-6.13,5.28c-15.31-0.37-30.64-0.25-45.97-0.06
		c-3.52,0.04-4.1-0.92-3.43-4.18c1.94-9.39,1.82-9.6-8.03-9.56c-3.41,0.01-3.86-1.09-3.27-4.01c1.37-6.84,2.6-13.71,3.74-20.59
		c0.31-1.88,0.68-2.95,2.96-2.92C446.93,108.78,455.08,108.7,463.76,108.7z"/>
	<path class="st1" d="M380.07,39.92c-4.56,25.76-9.02,51.08-13.54,76.4c-1.08,6.03-1.16,6.02,4.84,6.02
		c14.98,0,29.96,0.11,44.93-0.08c3.52-0.04,4.25,1,3.58,4.25c-1.4,6.83-2.63,13.7-3.69,20.58c-0.32,2.08-1.02,2.78-3.12,2.77
		c-21.14-0.06-42.27-0.07-63.41,0.01c-2.28,0.01-2.94-0.69-2.43-2.85c0.42-1.77,0.41-3.68,1.03-5.37c1.67-4.57,0.27-5.91-4.55-5.68
		c-8.08,0.38-8.13,0.09-6.72-7.87c4.98-28.28,9.98-56.56,14.98-84.84c0.27-1.54-0.15-3.4,2.49-3.37
		C362.91,39.97,371.37,39.92,380.07,39.92z"/>
	<path class="st1" d="M578.32,81.01c12.49,0,24.99,0.12,37.48-0.08c3.23-0.05,3.96,0.75,3.31,3.88c-1.45,6.99-2.7,14.03-3.76,21.1
		c-0.36,2.36-1.26,2.92-3.51,2.91c-25.49-0.07-50.97-0.08-76.46,0c-2.44,0.01-3.11-0.44-2.59-3.05c1.38-6.84,2.51-13.73,3.53-20.63
		c0.46-3.1,1.59-4.29,5.02-4.22C553.67,81.16,566,81.01,578.32,81.01z"/>
	<path class="st2" d="M224.63,23.94c14.32,0,28.64,0.15,42.95-0.1c3.81-0.07,4.25,1.04,3.64,4.42
		c-6.58,36.78-13.07,73.57-19.44,110.39c-0.6,3.49-1.92,4.45-5.45,4.43c-28.63-0.16-57.27-0.16-85.91-0.01
		c-3.83,0.02-4.92-0.91-4.2-4.75c2.47-13.05,4.75-26.14,6.95-39.24c0.45-2.69,1.59-3.63,4.26-3.55c5.49,0.15,10.99,0.19,16.48-0.01
		c3.15-0.12,3.67,1.26,3.16,3.9c-1.01,5.22-1.86,10.46-2.9,15.68c-0.57,2.89,0.01,4.2,3.4,4.16c13.32-0.17,26.64-0.15,39.95,0
		c2.99,0.03,4.06-1.1,4.54-3.86c3.6-20.78,7.25-41.55,11.02-62.29c0.71-3.92,0.13-5.46-4.45-5.4c-20.47,0.26-40.96-0.01-61.43,0.21
		c-4.19,0.04-5.04-1.11-4.11-4.99c1.2-5,2.22-10.08,2.72-15.19c0.34-3.47,1.96-3.85,4.85-3.83C195.33,24,209.98,23.94,224.63,23.94z
		"/>
	<path class="st3" d="M80.37,142.98c-14.32,0-28.64-0.15-42.96,0.09c-3.99,0.07-4.79-1.15-4.12-4.83
		c4.56-25.17,8.99-50.36,13.46-75.54c2.09-11.77,4.31-23.53,6.21-35.33c0.44-2.77,1.43-3.57,4.11-3.49c5.66,0.17,11.33,0.18,16.98,0
		c2.85-0.09,3.28,0.89,2.81,3.5c-5.15,28.6-10.19,57.22-15.29,85.84c-1.06,5.96-1.13,5.95,5.16,5.95c20.31,0,40.63,0.07,60.94-0.06
		c3.45-0.02,4.76,0.49,3.77,4.37c-1.31,5.13-2.13,10.42-2.74,15.69c-0.38,3.28-1.89,3.9-4.87,3.87
		C109.35,142.91,94.86,142.98,80.37,142.98z"/>
</g>
</svg>
